<?xml version="1.0" encoding="iso-8859-1"?>
<!-- Uploaded to: SVG Repo, www.svgrepo.com, Generator: SVG Repo Mixer Tools -->
<svg fill="#000000" height="800px" width="800px" version="1.1" id="Layer_1" xmlns="http://www.w3.org/2000/svg" xmlns:xlink="http://www.w3.org/1999/xlink" 
	 viewBox="0 0 512 512" xml:space="preserve">
<g>
	<g>
		<path d="M463.236,48.805C431.765,17.332,389.919,0,345.408,0c-44.512,0-86.359,17.333-117.833,48.808
			c-26.034,26.036-50.524,84.447-72.818,173.659l-28.089,28.087c-8.487,8.487-8.488,22.25-0.001,30.738l5.125,5.124l-27.767,27.764
			c-9.982-5.157-21.118-7.887-32.677-7.887c-19.047,0-36.954,7.417-50.42,20.884c-13.47,13.467-20.887,31.374-20.889,50.421
			c0,19.047,7.416,36.953,20.885,50.421c11.633,11.631,26.579,18.749,42.708,20.473c1.776,15.851,8.793,31.025,20.388,42.621
			C97.488,504.583,115.393,512,134.442,512c19.043,0,36.953-7.417,50.422-20.886c22.442-22.445,26.767-56.253,12.973-83.079
			l27.786-27.788l5.124,5.124c4.077,4.078,9.605,6.367,15.37,6.367c5.766,0,11.294-2.291,15.37-6.367l28.088-28.092
			c89.217-22.296,147.629-46.783,173.66-72.814C528.202,219.498,528.203,113.78,463.236,48.805z M154.125,390.272
			c-8.488,8.488-8.488,22.25-0.001,30.738c10.853,10.853,10.853,28.515,0.003,39.367c-5.26,5.258-12.25,8.154-19.685,8.154
			c-7.436,0-14.425-2.895-19.682-8.154c-7.606-7.606-10.142-18.652-6.618-28.829c2.723-7.865,0.714-16.594-5.17-22.48
			c-4.146-4.146-9.7-6.365-15.371-6.365c-2.382,0-4.783,0.391-7.109,1.195c-2.939,1.019-6.016,1.536-9.148,1.536
			c-7.433,0-14.423-2.897-19.68-8.154c-5.257-5.256-8.152-12.244-8.152-19.679c0-7.435,2.897-14.425,8.156-19.683
			c5.257-5.258,12.247-8.154,19.682-8.154c7.435,0,14.423,2.895,19.68,8.152c8.487,8.487,22.251,8.485,30.738-0.001l40.763-40.76
			l32.356,32.356L154.125,390.272z M432.495,253.728c-20.019,20.018-78.041,42.906-159.189,62.797
			c-3.859,0.945-7.386,2.931-10.195,5.741l-16.995,16.997l-73.341-73.34l16.995-16.995c2.81-2.808,4.796-6.335,5.741-10.194
			c19.891-81.143,42.779-139.165,62.801-159.188c23.265-23.264,54.196-36.076,87.097-36.076c32.898,0,63.829,12.811,87.089,36.072
			C480.516,127.567,480.515,205.708,432.495,253.728z"/>
	</g>
</g>
</svg>